<?xml version="1.0" encoding="utf-8"?>
<!-- Generator: Adobe Illustrator 24.0.1, SVG Export Plug-In . SVG Version: 6.00 Build 0)  -->
<svg version="1.1" id="Layer_1" xmlns="http://www.w3.org/2000/svg" xmlns:xlink="http://www.w3.org/1999/xlink" x="0px" y="0px"
	 viewBox="0 0 36.9 38.2" style="enable-background:new 0 0 36.9 38.2;" xml:space="preserve">
<style type="text/css">
	.st0{fill:#231F20;}
</style>
<path class="st0" d="M18.4,18.2c-0.3,0-0.6-0.3-0.5-0.6l1.4-7c0.1-0.3,0.3-0.5,0.6-0.5h6.9c0.3,0,0.6-0.2,0.6-0.5l1.7-8.7
	C29.3,0.4,29,0,28.6,0H17.9c-0.3,0-0.6,0.2-0.6,0.5L16,6.6c-0.1,0.3-0.3,0.5-0.6,0.5H3.5C3.2,7.2,3,7.4,2.9,7.7L0.2,21.4
	c-0.1,0.4,0.2,0.8,0.6,0.8h11.3c0.4,0,0.7,0.4,0.6,0.8L10,37.4c-0.1,0.4,0.2,0.8,0.6,0.8h21.7c0.3,0,0.6-0.2,0.6-0.5L36.6,19
	c0.1-0.4-0.2-0.8-0.6-0.8H18.4z"/>
</svg>
